<?xml version="1.0" standalone="no"?>
<!DOCTYPE svg PUBLIC "-//W3C//DTD SVG 20010904//EN"
 "http://www.w3.org/TR/2001/REC-SVG-20010904/DTD/svg10.dtd">
<svg version="1.0" xmlns="http://www.w3.org/2000/svg"
 width="64.000000pt" height="64.000000pt" viewBox="0 0 64.000000 64.000000"
 preserveAspectRatio="xMidYMid meet">

<g transform="translate(0.000000,64.000000) scale(0.100000,-0.100000)"
fill="#000000" stroke="none">
<path d="M254 591 c-34 -21 -68 -70 -79 -113 -6 -25 -12 -28 -46 -28 -29 0
-41 -5 -49 -21 -7 -11 -24 -96 -40 -187 -25 -148 -27 -170 -14 -189 14 -23 15
-23 294 -23 279 0 280 0 294 22 13 20 11 42 -14 190 -16 91 -33 176 -40 187
-8 16 -20 21 -49 21 -34 0 -40 3 -46 28 -26 107 -130 162 -211 113z m124 -28
c27 -17 62 -71 62 -95 0 -16 -12 -18 -120 -18 -110 0 -120 2 -120 19 0 29 43
85 80 103 36 18 58 16 98 -9z m-216 -160 c4 -34 22 -33 26 2 l3 25 129 0 129
0 3 -27 c2 -16 8 -28 13 -28 6 0 11 12 13 28 3 21 9 27 28 27 33 0 39 -17 69
-199 20 -117 23 -156 14 -167 -17 -21 -521 -21 -538 0 -9 10 -5 53 15 177 15
90 31 170 37 177 5 6 20 12 33 12 17 0 23 -6 26 -27z"/>
</g>
</svg>
