<?xml version="1.0" standalone="no"?>
<!DOCTYPE svg PUBLIC "-//W3C//DTD SVG 20010904//EN"
 "http://www.w3.org/TR/2001/REC-SVG-20010904/DTD/svg10.dtd">
<svg version="1.0" xmlns="http://www.w3.org/2000/svg"
 width="64.000000pt" height="64.000000pt" viewBox="0 0 64.000000 64.000000"
 preserveAspectRatio="xMidYMid meet">

<g transform="translate(0.000000,64.000000) scale(0.100000,-0.100000)"
fill="#000000" stroke="none">
<path d="M285 579 c-123 -37 -128 -206 -7 -249 37 -13 47 -13 84 0 102 36 120
180 29 232 -37 22 -72 27 -106 17z m103 -65 c34 -39 30 -95 -9 -128 -39 -33
-79 -33 -118 0 -24 20 -31 34 -31 63 0 90 99 132 158 65z"/>
<path d="M140 257 c-35 -17 -40 -85 -11 -126 72 -101 310 -101 382 0 29 41 24
109 -11 126 -35 18 -325 18 -360 0z m348 -60 c7 -60 -61 -101 -168 -101 -77 0
-106 9 -147 47 -22 20 -31 66 -16 81 4 3 79 5 167 4 l161 -3 3 -28z"/>
</g>
</svg>
