<?xml version="1.0" standalone="no"?>
<!DOCTYPE svg PUBLIC "-//W3C//DTD SVG 20010904//EN"
 "http://www.w3.org/TR/2001/REC-SVG-20010904/DTD/svg10.dtd">
<svg version="1.0" xmlns="http://www.w3.org/2000/svg"
 width="64.000000pt" height="64.000000pt" viewBox="0 0 64.000000 64.000000"
 preserveAspectRatio="xMidYMid meet">

<g transform="translate(0.000000,64.000000) scale(0.100000,-0.100000)"
fill="#000000" stroke="none">
<path d="M195 541 c-154 -71 -150 -280 7 -346 50 -20 94 -19 147 6 l45 20 71
-71 c56 -55 73 -68 83 -58 10 10 -3 27 -58 83 l-71 71 20 45 c25 55 26 102 2
154 -45 98 -152 140 -246 96z m155 -24 c51 -27 90 -90 90 -147 0 -87 -83 -170
-170 -170 -57 0 -120 39 -147 90 -37 69 -28 137 25 194 56 59 130 71 202 33z"/>
</g>
</svg>
